<svg width="206" height="80" fill="none" xmlns="http://www.w3.org/2000/svg"><path d="M8.996 13H6.938V4.708H2.953V13H.903V3.047h8.093V13zm4.276-3.507V13H11.22V3.047h3.883c.747 0 1.403.137 1.968.41.57.273 1.008.663 1.313 1.169.305.501.458 1.073.458 1.716 0 .975-.335 1.745-1.005 2.31-.665.56-1.588.841-2.769.841h-1.797zm0-1.661h1.832c.542 0 .954-.128 1.237-.383.287-.255.43-.62.43-1.094 0-.487-.143-.881-.43-1.182-.287-.3-.684-.456-1.19-.465h-1.88v3.124zm13.374-4.785h2.057V13h-2.057V6.39L22.66 13h-2.05V3.047h2.05V9.67l3.986-6.624zm12.068 6.638c-.077 1.07-.474 1.914-1.19 2.529-.71.615-1.65.923-2.816.923-1.276 0-2.28-.429-3.014-1.285-.73-.862-1.094-2.042-1.094-3.541v-.609c0-.957.168-1.8.506-2.53.337-.728.818-1.287 1.442-1.674.629-.392 1.358-.588 2.188-.588 1.148 0 2.073.308 2.775.923s1.107 1.479 1.217 2.59h-2.051c-.05-.642-.23-1.107-.54-1.394-.305-.291-.773-.437-1.401-.437-.684 0-1.197.246-1.538.738-.338.488-.51 1.247-.52 2.276v.752c0 1.076.162 1.862.485 2.359.328.496.843.745 1.545.745.634 0 1.105-.144 1.415-.43.315-.292.495-.741.54-1.347h2.051zm9.943-1.436c0 .98-.174 1.839-.52 2.577-.346.739-.843 1.308-1.49 1.71-.643.4-1.381.6-2.215.6-.825 0-1.56-.197-2.208-.594-.647-.396-1.148-.962-1.504-1.695-.355-.739-.535-1.586-.54-2.543v-.492c0-.98.175-1.842.526-2.584.356-.748.855-1.32 1.497-1.716.648-.401 1.386-.602 2.215-.602.83 0 1.566.2 2.208.602.647.396 1.146.968 1.497 1.716.356.742.534 1.601.534 2.577v.444zm-2.079-.451c0-1.044-.186-1.837-.56-2.38-.374-.541-.907-.813-1.6-.813-.688 0-1.219.27-1.593.807-.373.533-.562 1.317-.567 2.352v.485c0 1.016.187 1.805.56 2.365.374.56.912.841 1.614.841.688 0 1.217-.269 1.586-.807.369-.542.556-1.33.56-2.365v-.485zm9.977.889h-3.937v2.665h4.62V13h-6.671V3.047h6.658v1.661h-4.607V7.08h3.937v1.607zm11.535 6.76h-1.893V13h-6.002v2.44h-1.942l-.109-4.088h.752c.406-.337.718-.831.937-1.483.223-.656.373-1.467.45-2.433l.288-4.39h6.521v8.306h1.162l-.164 4.095zm-6.843-4.095h3.794V4.708H62.52l-.17 2.618c-.138 1.755-.505 3.097-1.101 4.026zm14.475-8.305h2.058V13h-2.058V6.39L71.737 13h-2.05V3.047h2.05V9.67l3.985-6.624zM88.078 13h-2.051V8.734h-3.999V13h-2.05V3.047h2.05V7.08h3.999V3.047h2.05V13zm6.818 0V9.411h-1.668L91.43 13h-2.215l2.126-4.245c-1.025-.565-1.538-1.443-1.538-2.632 0-.975.32-1.73.957-2.263.638-.533 1.53-.804 2.673-.813h3.52V13h-2.057zm-3.042-6.727c0 .556.135.96.403 1.21.274.251.682.376 1.224.376h1.415V4.708h-1.415c-1.084 0-1.627.522-1.627 1.565zm13.183-3.226h2.058V13h-2.058V6.39L101.052 13h-2.051V3.047h2.051V9.67l3.985-6.624zm.396-2.618c0 .606-.218 1.096-.656 1.47-.433.373-1.002.56-1.709.56-.706 0-1.278-.185-1.716-.554-.433-.369-.649-.861-.649-1.476h1.401c0 .287.085.51.253.67.173.155.41.232.711.232.296 0 .529-.077.697-.232.169-.16.253-.383.253-.67h1.415zm11.351 4.279h-3.049V13h-2.051V4.708h-3.007V3.047h8.107v1.661zm7.584 3.979h-3.937v2.665h4.621V13h-6.672V3.047h6.658v1.661h-4.607V7.08h3.937v1.607zm10.12.998c-.077 1.07-.474 1.914-1.189 2.529-.711.615-1.65.923-2.817.923-1.276 0-2.28-.429-3.014-1.285-.729-.862-1.094-2.042-1.094-3.541v-.609c0-.957.169-1.8.506-2.53.337-.728.818-1.287 1.442-1.674.629-.392 1.358-.588 2.188-.588 1.148 0 2.073.308 2.775.923s1.108 1.479 1.217 2.59h-2.051c-.05-.642-.23-1.107-.54-1.394-.305-.291-.772-.437-1.401-.437-.684 0-1.196.246-1.538.738-.338.488-.511 1.247-.52 2.276v.752c0 1.076.162 1.862.486 2.359.328.496.843.745 1.544.745.634 0 1.106-.144 1.415-.43.315-.292.495-.741.541-1.347h2.05zm3.818-3.05h1.599c1.172 0 2.099.286 2.783.855.688.565 1.032 1.329 1.032 2.29 0 .966-.342 1.743-1.026 2.331-.679.584-1.583.88-2.713.889h-3.74V3.047h2.065v3.589zm0 1.655v3.063h1.634c.524 0 .941-.144 1.251-.431.314-.287.471-.672.471-1.155 0-.452-.15-.807-.451-1.067-.296-.264-.704-.4-1.224-.41h-1.681z" fill="#fff"/><path d="M206 58a21.929 21.929 0 01-6.444 15.556A21.93 21.93 0 01184 80a21.93 21.93 0 01-15.556-6.444A21.929 21.929 0 01162 58a21.928 21.928 0 016.444-15.556A21.93 21.93 0 01184 36a21.93 21.93 0 0115.556 6.444A21.928 21.928 0 01206 58z" fill="#fff" fill-opacity=".1"/><g clip-path="url(#clip0)" fill="#fff"><path d="M193.995 68H194v-7.336c0-3.588-.772-6.352-4.968-6.352-2.016 0-3.37 1.106-3.922 2.156h-.058v-1.821h-3.978v13.352h4.142v-6.611c0-1.741.33-3.425 2.486-3.425 2.124 0 2.155 1.987 2.155 3.536V68h4.138zM174.33 54.648h4.147V68h-4.147V54.648zM176.402 48A2.403 2.403 0 00174 50.402c0 1.325 1.076 2.424 2.402 2.424 1.325 0 2.401-1.099 2.401-2.424A2.403 2.403 0 00176.402 48z"/></g><path d="M152 58a21.929 21.929 0 01-6.444 15.556A21.93 21.93 0 01130 80a21.93 21.93 0 01-15.556-6.444A21.929 21.929 0 01108 58a21.928 21.928 0 016.444-15.556A21.93 21.93 0 01130 36a21.93 21.93 0 0115.556 6.444A21.928 21.928 0 01152 58z" fill="#fff" fill-opacity=".1"/><g clip-path="url(#clip1)"><path d="M133.331 51.32h1.826v-3.18a23.6 23.6 0 00-2.66-.14c-2.633 0-4.436 1.656-4.436 4.7v2.8h-2.905v3.555h2.905V68h3.562v-8.944h2.787l.443-3.555h-3.231v-2.45c.001-1.027.277-1.73 1.709-1.73z" fill="#fff"/></g><path d="M98 58a21.931 21.931 0 01-6.444 15.556A21.931 21.931 0 0176 80a21.931 21.931 0 01-15.556-6.444A21.931 21.931 0 0154 58a21.93 21.93 0 016.444-15.556A21.93 21.93 0 0176 36a21.931 21.931 0 0115.556 6.444A21.931 21.931 0 0198 58z" fill="#2196F3"/><g clip-path="url(#clip2)"><path d="M86 51.799a8.55 8.55 0 01-2.362.647 4.076 4.076 0 001.803-2.266 8.191 8.191 0 01-2.6.992 4.099 4.099 0 00-7.093 2.804c0 .325.028.638.096.935-3.409-.166-6.425-1.8-8.451-4.288a4.128 4.128 0 00-.562 2.072c0 1.42.731 2.679 1.822 3.407a4.048 4.048 0 01-1.853-.505v.045a4.119 4.119 0 003.285 4.03 4.09 4.09 0 01-1.075.134 3.62 3.62 0 01-.776-.07c.531 1.624 2.038 2.818 3.831 2.857a8.238 8.238 0 01-5.084 1.748 7.67 7.67 0 01-.981-.056 11.543 11.543 0 006.29 1.84c7.545 0 11.67-6.25 11.67-11.667 0-.182-.006-.357-.015-.53A8.179 8.179 0 0086 51.797z" fill="#fff"/></g><path d="M44 58a21.931 21.931 0 01-6.444 15.556A21.931 21.931 0 0122 80a21.931 21.931 0 01-15.556-6.444A21.931 21.931 0 010 58a21.931 21.931 0 016.444-15.556A21.931 21.931 0 0122 36a21.931 21.931 0 0115.556 6.444A21.931 21.931 0 0144 58z" fill="#fff" fill-opacity=".1"/><g clip-path="url(#clip3)" fill="#fff"><path d="M31.98 53.88c-.046-1.063-.218-1.793-.464-2.426a4.881 4.881 0 00-1.157-1.774 4.922 4.922 0 00-1.77-1.153c-.637-.246-1.363-.418-2.426-.464-1.07-.051-1.41-.063-4.126-.063-2.715 0-3.055.012-4.122.059-1.063.047-1.793.219-2.426.465a4.879 4.879 0 00-1.774 1.156 4.923 4.923 0 00-1.152 1.77c-.247.637-.418 1.363-.465 2.426-.051 1.07-.063 1.41-.063 4.126 0 2.715.012 3.055.059 4.122.047 1.063.219 1.793.465 2.426a4.932 4.932 0 001.156 1.774c.5.508 1.106.903 1.77 1.153.637.246 1.364.417 2.426.464 1.067.047 1.407.059 4.122.059 2.716 0 3.055-.012 4.122-.059 1.063-.047 1.793-.218 2.426-.465a5.116 5.116 0 002.927-2.926c.246-.637.418-1.363.465-2.426.047-1.067.058-1.407.058-4.122s-.004-3.055-.05-4.122zm-1.8 8.166c-.044.977-.208 1.504-.344 1.855a3.318 3.318 0 01-1.9 1.9c-.35.136-.882.3-1.855.343-1.055.047-1.371.059-4.04.059-2.668 0-2.989-.012-4.04-.059-.977-.043-1.504-.207-1.856-.344a3.076 3.076 0 01-1.148-.746 3.109 3.109 0 01-.747-1.148c-.136-.352-.3-.883-.343-1.856-.047-1.055-.059-1.372-.059-4.04 0-2.669.012-2.99.059-4.04.043-.977.207-1.504.343-1.856a3.04 3.04 0 01.75-1.149 3.104 3.104 0 011.15-.746c.35-.136.882-.3 1.855-.344 1.055-.047 1.372-.058 4.04-.058 2.672 0 2.989.011 4.04.058.977.043 1.504.208 1.856.344.433.16.828.414 1.148.746.332.325.586.715.747 1.15.136.35.3.882.343 1.855.047 1.055.059 1.371.059 4.04 0 2.668-.012 2.98-.059 4.036z"/><path d="M22.037 52.864a5.139 5.139 0 00-5.138 5.138 5.139 5.139 0 105.138-5.138zm0 8.47a3.333 3.333 0 11.001-6.666 3.333 3.333 0 010 6.667zM28.578 52.661a1.2 1.2 0 11-2.4 0 1.2 1.2 0 012.4 0z"/></g><defs><clipPath id="clip0"><path fill="#fff" transform="translate(174 48)" d="M0 0h20v20H0z"/></clipPath><clipPath id="clip1"><path fill="#fff" transform="translate(120 48)" d="M0 0h20v20H0z"/></clipPath><clipPath id="clip2"><path fill="#fff" transform="translate(66 48)" d="M0 0h20v20H0z"/></clipPath><clipPath id="clip3"><path fill="#fff" transform="translate(12 48)" d="M0 0h20v20H0z"/></clipPath></defs></svg>